<svg width="113" height="113" viewBox="0 0 113 113" fill="none" xmlns="http://www.w3.org/2000/svg">
<path d="M93 32L81.6288 81H62.2558L56.5 53.178L50.7442 81H31.3712L20 32H36.776L41.2683 62.8672L48.0067 32H64.9933L71.7317 62.8672L76.224 32H93Z" fill="white"/>
<path fill-rule="evenodd" clip-rule="evenodd" d="M38.6697 2.8864C44.2726 1.03602 50.2569 0.000197219 56.5001 0.000197219C68.7247 -0.0321514 80.6275 3.91577 90.4097 11.2473C100.192 18.5788 107.322 28.8953 110.721 40.6377C105.363 42.2444 100.965 42.1158 95.1113 35.1103L96.5 29H90.7302C78.8678 10.8421 61.8095 -2.93602 38.6697 2.8864ZM72.6222 37.8525C71.0509 35.3186 69.4698 32.9657 67.8799 30.7908L71 45.5L72.6222 37.8525ZM66.5379 29C56.6138 16.0869 46.3637 10.0385 36.0566 10.1513C28.3161 10.2408 20.5426 13.8003 12.8398 20.5426C4.50559 30.6688 -0.0351346 43.3852 0.00020473 56.5C0.736113 45.2095 7.57026 35.6788 17.4234 33.2324L16.5 29H39.5L40.8086 39.796C41.3846 40.2415 41.9626 40.7096 42.5422 41.2009L45.5 29H66.5379ZM24.1764 64.1833L28.5 84H44.48C66.3799 106.651 91.531 102.362 103.758 87.316V87.5184C93.6865 102.882 76.3457 113 56.5001 113C45.6696 113.026 35.0616 109.926 25.9486 104.074C16.8356 98.2212 9.60452 89.8637 5.12286 80.0039C3.16891 70.8133 7.79248 62.9316 15.6789 62.3195C18.2121 62.1239 21.0815 62.6795 24.1764 64.1833ZM84.7709 80.608L90.1216 57.065C99.6133 62.4135 107.842 59.323 112.873 54.047C112.886 54.3695 112.908 54.6897 112.931 55.0101C112.965 55.5037 113 55.9975 113 56.5C113 59.2732 112.736 61.9758 112.355 64.6407C109.682 75.8679 98.3567 83.7234 84.7709 80.608Z" fill="white"/>
</svg>
